<?xml version="1.0" encoding="utf-8"?>
<!-- Generator: Adobe Illustrator 21.1.0, SVG Export Plug-In . SVG Version: 6.00 Build 0)  -->
<svg version="1.1" id="Calque_1" xmlns="http://www.w3.org/2000/svg" xmlns:xlink="http://www.w3.org/1999/xlink" x="0px" y="0px"
	 viewBox="0 0 432 432" style="enable-background:new 0 0 432 432;" xml:space="preserve">
<style type="text/css">
	.st0{fill:#B0444D;}
	.st1{fill:#C1292E;}
	.st2{fill:#020203;}
	.st3{fill:#F39323;}
	.st4{fill:#1B1B1B;}
	.st5{fill:#8EC045;}
	.st6{fill:#2DABE3;}
	.st7{fill:#DEBF80;}
	.st8{fill:#CD9C61;}
	.st9{fill:#F9B03D;}
	.st10{fill:#009245;}
	.st11{fill:#DC93AB;}
	.st12{fill:#BAC4AA;}
	.st13{fill:#BEBDBE;}
	.st14{fill:#BDB0A3;}
	.st15{fill:#768DAF;}
	.st16{fill:#6FA1BD;}
	.st17{fill:#C0C0BF;}
	.st18{fill:#93B75A;}
	.st19{fill:#C88C5E;}
	.st20{fill:#BA9BC9;}
	.st21{fill:#6BC4CD;}
	.st22{fill:#828BC5;}
	.st23{fill:#E2A85A;}
	.st24{fill:#EAB063;}
	.st25{fill:#C53C46;}
	.st26{fill:#E56D48;}
	.st27{fill:#5BB063;}
	.st28{fill:#F3977C;}
	.st29{fill:#1C907F;}
	.st30{fill:#B190C2;}
	.st31{fill:#C1944E;}
	.st32{fill:#F4A08D;}
	.st33{fill:#C17A3B;}
	.st34{fill:#C1906B;}
	.st35{fill:#BC373C;}
	.st36{fill:#DD7629;}
	.st37{fill:#A982B9;}
	.st38{fill:#343434;}
	.st39{fill:#EE7DAF;}
	.st40{fill:#B0D49A;}
	.st41{fill:#FED47A;}
	.st42{fill:#47AC6C;}
	.st43{fill:#FCC02D;}
	.st44{fill:#F28D36;}
	.st45{fill:#3BB0D7;}
	.st46{fill:#F18FA9;}
	.st47{fill:#E497AC;}
	.st48{fill:#F9D0DD;}
	.st49{fill:#FCC44A;}
	.st50{fill:#9F4E53;}
	.st51{fill:#EFC14F;}
	.st52{fill:#E2934E;}
	.st53{fill:#CDCCCC;}
	.st54{fill:#00A2B3;}
	.st55{fill:#EE751B;}
	.st56{fill:#CD242A;}
	.st57{fill:#48A6A0;}
	.st58{fill:#544842;}
	.st59{fill:#7CB5A8;}
	.st60{fill:#4E8896;}
	.st61{fill:#CC91AC;}
	.st62{fill:#57A272;}
	.st63{fill:#67A2B5;}
	.st64{fill:#C98D30;}
	.st65{fill:#D34B4B;}
	.st66{fill:#D98181;}
	.st67{fill:#947552;}
	.st68{fill:#521B29;}
	.st69{fill:#7B4754;}
	.st70{fill:#B29F8B;}
	.st71{fill:#F1B672;}
	.st72{fill:#A37C4D;}
	.st73{fill:#7392A0;}
	.st74{fill:#8C4044;}
	.st75{fill:#A97779;}
	.st76{fill:#A58594;}
	.st77{fill:#60314A;}
	.st78{fill:#944C71;}
</style>
<g>
	<g>
		<path d="M187.2,182.9c4.2-0.8,8.3-1.5,12.5-2.3c0.1-1.3,0.3-2.5,0.4-3.8c0.5-4,1.2-7.9,2.4-11.8c1.3-4,3.1-7.6,5.9-10.8
			c1.9-2.1,4-3.9,6.6-4.9c1.8-0.7,3.6-1,5.5-0.4c3,0.9,4.6,3,5.2,6c0.7,3.4,0.4,6.8-1,10c-2,4.9-5.2,8.8-9.5,11.9
			c-1.4,1-3,1.9-4.5,2.9c-0.5,0.3-0.7,0.6-0.8,1.2c-0.4,5.4-0.5,10.8-0.1,16.4c0.2-0.3,0.3-0.4,0.3-0.6c0.7-2.5,1.7-4.9,3-7.1
			c1.6-2.7,3.8-4.8,6.7-6.1c3.9-1.9,7.2-0.1,9.1,2.4c1.4,1.9,2.1,4.2,2.5,6.5c0.6,3.8,0.5,7.6,0.3,11.5c-0.2,3.6-0.4,7.3-0.6,10.9
			c-0.2,3.6-0.3,7.3-0.5,10.9c0,0.8,0,1.7,0,2.5c0,0.5,0.1,1,0.6,1.4c0.7-0.5,1-1.2,1.4-1.9c1.2-2.4,2-4.9,2.6-7.4
			c0.6-2.3,1.2-4.7,1.8-7c0.2-0.8,0.2-1.6-0.1-2.4c-1.1-3-1.8-6-1.7-9.2c0.2-3.7,0.9-7.2,3-10.3c2-3,4.7-5,8.4-5.6
			c2.2-0.3,4.3,0,6.3,0.9c1.3,0.5,2.4,1.3,3.7,2c0.3,0.2,0.5,0.4,0.9,0.6c0.1-1.2,0.1-2.2,0.2-3.2c0.4-5.9,1.3-11.8,3.1-17.4
			c1-3.1,2.3-6.1,4-8.8c1.3-2,2.8-3.8,4.9-4.9c0.9-0.4,1.8-0.8,2.7-1c2.9-0.7,5.2,0.3,6.9,2.6c1.4,1.8,2,3.9,2.2,6.1
			c0.3,2.7-0.1,5.3-0.8,7.8c-2.2,7.3-5.9,13.6-11.5,18.8c-0.1,0-0.1,0.1-0.2,0.1c-1.3,0.7-1.4,1.8-1.4,3.1
			c0.1,6.1,0.4,12.1,1.2,18.1c0.3,1.9,0.7,3.8,1.1,5.7c0.4,1.9,1.3,3.6,2.7,4.9c1.5,1.5,2.8,1.2,3.6-0.8c1.2-3,1.9-6,2.6-9.2
			c1-4.7,1.9-9.4,2.9-14.2c0-0.1,0-0.2,0-0.4c-1.6-0.2-3.3-0.2-4.9,0.3c-0.8,0.3-1.6,0.6-2.4,0.9c-0.4,0.1-0.8,0.3-1.3,0.3
			c-0.9,0-1.2-0.6-0.7-1.3c0.3-0.4,0.6-0.7,0.9-1.1c1.8-1.5,3.8-2.4,6.1-2.7c1-0.1,2-0.2,3.1-0.3c0.3-1.6,0.7-3.3,1-4.9
			c1.3-6.1,2.7-12.2,5-18.1c1-2.7,2.2-5.3,3.7-7.7c0.6-1,1.2-1.9,2-2.7c1.9-2.1,4.8-2.2,7-0.4c1.5,1.2,2.3,2.9,3,4.6
			c0.9,2.3,1.2,4.7,1.5,7.2c0.5,5,0.6,10,0.7,15c0,5.8,0.1,11.5,0.3,17.3c0.2,5.8,1.1,11.5,2.6,17.1c0.5,2.1,1.3,4,2.5,5.8
			c0.4,0.5,0.8,1.1,1.2,1.6c0.3,0.3,0.8,0.6,1.2,0.9c0.7-0.7,1-1.5,1.2-2.3c0.5-1.9,1-3.8,1.3-5.8c1.3-7.4,2.5-14.9,3.7-22.4
			c0.1-0.5,0-1.1-0.1-1.6c-1.8-6.6-2.5-13.3-2.6-20.1c0-2,0.1-4,0.6-6c0.5-2,1.7-3.4,3.4-4.3c2.5-1.3,4.9-0.6,6.2,1.9
			c0.8,1.6,1.1,3.4,1.3,5.2c0.4,3.6,0.7,7.3,1.1,10.9c0.5,4.4,1.1,8.7,2.4,12.9c0.4,1.3,0.8,2.5,1.4,3.7c0.4,0.8,1,1.6,1.7,2.3
			c0.7,0.8,1.4,0.9,2.2,0.2c0.7-0.5,1.3-1.2,1.7-1.9c1-1.5,1.5-3.2,2-5c1.4-5.3,2.3-10.6,2.6-16.1c0.2-3.2,0.6-6.4,1.5-9.5
			c0.3-1,0.7-2,1.1-3c1.4-2.6,3.9-3.7,6.8-3.1c2,0.5,3.6,1.6,4.9,3.1c2.2,2.5,3.8,5.4,5.1,8.5c2.1,5.1,3.4,10.4,4.4,15.8
			c1.4,8.1,1.8,16.2,1.5,24.3c-0.3,6.8-1.1,13.6-3.3,20.1c-1.5,4.7-3.7,9-7,12.6c-3.4,3.7-7.3,6.3-12.3,7.4
			c-5.6,1.2-10.9,0-15.7-3.1c-0.7-0.4-1.2-0.5-2-0.2c-5.6,2.2-11.5,3-17.5,2.5c-7.4-0.5-14.5-2.1-21.6-4.1c-6.7-2-13.3-4.2-19.9-6.3
			c-4.5-1.4-8.9-2.7-13.6-3.3c-4.7-0.7-9.5-0.7-14.1,0.6c-2.1,0.6-4.1,1.5-5.8,3c-2.5,2.3-3.6,5.2-3.9,8.4c-0.1,0.7-0.1,1.5-0.3,2.2
			c-0.2,1.2-0.6,1.7-1.4,1.7c-0.8,0-1.5-0.5-1.7-1.7c-0.4-1.8-0.3-3.6,0.1-5.3c1-4,3.3-7.1,6.9-9.2c2.7-1.6,5.7-2.5,8.8-3.1
			c5.2-0.9,10.4-0.5,15.6,0.5c5.8,1.1,11.4,3,16.9,4.8c6.2,2.1,12.3,4.1,18.7,5.5c4.6,1,9.2,1.9,13.9,2.2c5.2,0.4,10.4,0,15.3-1.8
			c0.3-0.1,0.7-0.3,1.1-0.4c-0.2-0.4-0.4-0.7-0.6-1c-2.8-4.9-3.5-10-1.6-15.4c1.4-4.1,4.4-6.8,8.6-7.9c4.1-1,8.1,0.8,10.2,4.5
			c2.6,4.7,2,9.3-0.7,13.7c-1.3,2.3-3.3,4-5.4,5.5c-0.4,0.3-0.9,0.6-1.4,1c1,0.6,2,0.8,3,0.9c2.4,0.2,4.7,0,7-0.8c3-0.9,5-3,6.9-5.4
			c1.2-1.5,1.9-3.3,2.6-5.2c1.9-4.9,2.8-9.9,3.1-15.1c0.2-4.4,0.2-8.8,0-13.1c-0.3-5.7-1.4-11.2-2.5-16.8
			c-1.5-7.1-3.8-13.8-6.6-20.5c-0.1-0.2-0.2-0.3-0.4-0.7c-0.2,0.7-0.3,1.1-0.4,1.5c-0.4,2.8-0.8,5.6-1.1,8.4
			c-0.6,5.4-1.2,10.7-2.9,15.9c-0.5,1.6-1.2,3.2-1.9,4.7c-0.4,0.9-0.9,1.6-1.5,2.4c-2.7,3.6-6.9,4.7-11,2.9
			c-2.5-1.1-4.5-2.9-6.1-5.2c-0.5-0.7-1-1.5-1.5-2.3c-0.1,0.3-0.2,0.5-0.2,0.6c-0.7,5.3-1.4,10.6-2.2,15.8c-0.6,3.8-1.4,7.5-2.8,11
			c-0.6,1.4-1.4,2.5-2.6,3.3c-1.3,0.9-2.8,1-4.3,0.5c-1.7-0.6-3.1-1.5-4.3-2.7c-1.5-1.4-2.7-3.1-3.7-4.9c-2.1-4-3.5-8.3-4.6-12.6
			c-1-3.9-1.7-7.8-2.2-11.8c-0.1-0.4-0.1-0.8-0.2-1.3c-3.4-0.8-6.8-1.5-10.4-2.3c-0.1,0.5-0.2,1-0.3,1.4c-1,4.9-2,9.8-3.1,14.7
			c-0.6,2.7-1.5,5.2-2.4,7.8c-0.5,1.5-1.3,2.9-2.3,4.2c-2.4,2.9-6,3.6-9.2,1.8c-1.3-0.7-2.4-1.7-3.3-2.8c-2.3-2.8-3.7-6.1-4.8-9.5
			c-0.1-0.3-0.2-0.7-0.3-1c0,0-0.1,0-0.2-0.1c-0.1,0.2-0.3,0.5-0.4,0.7c-0.6,1.4-1.1,2.8-1.8,4.1c-0.5,0.9-1,1.9-1.7,2.7
			c-2.2,2.8-5.7,3.7-9.1,2.4c-1.3-0.5-2.4-1.3-3.5-2.3c-1.2-1.1-2.3-2.5-3.2-3.9c-0.2-0.3-0.4-0.6-0.7-1.1c-0.4,1.5-0.7,2.8-1,4.1
			c-0.7,2.7-1.5,5.4-2.7,8c-0.5,1-1,2-1.7,2.9c-2.1,2.7-5.6,3-8.2,0.7c-1.6-1.5-2.5-3.4-3.2-5.4c-0.8-2.3-1.2-4.6-1.3-7
			c-0.2-4.1,0.2-8.2,0.5-12.2c0.4-5.5,0.7-11.1,0.1-16.6c-0.1-0.8-0.2-1.5-0.5-2.2c-0.2-0.7-0.6-0.9-1.3-0.6
			c-0.8,0.4-1.6,0.8-2.2,1.3c-1.4,1.1-2.3,2.6-3,4.3c-1.3,2.8-2.1,5.8-2.6,8.9c-0.5,3.3-0.9,6.7-1.3,10c-0.1,0.7-0.3,1.5-0.7,2
			c-1.2,1.7-3.6,1.7-4.8,0c-0.9-1.2-1.6-2.5-2.2-3.9c-0.7-1.6-1.2-3.2-1.8-4.8c-0.1-0.2-0.2-0.5-0.3-0.9c-0.3,1.1-0.5,2-0.8,2.9
			c-1,3.3-2,6.7-3.1,10c-0.4,1.3-1.1,2.5-1.7,3.7c-0.6,1.2-1.5,2.1-2.7,2.8c-2.1,1.3-4.2,1.4-6.4,0.1c-1.2-0.7-2.1-1.7-3-2.8
			c-2.1-2.7-3.5-5.7-4.6-8.9c-1.2-3.4-1.8-7-2.2-10.6c-0.5-3.9-0.6-7.7-0.5-11.6c0-0.3,0-0.5,0-0.9c-0.3,0-0.5,0-0.8,0.1
			c-2.5,0.9-4.7,2.3-6.7,4.1c-1.6,1.5-2.7,3.3-3.4,5.3c-0.1,0.3-0.2,0.6-0.4,0.9c-0.3,0.5-0.8,0.7-1.3,0.6c-0.6-0.1-0.8-0.5-0.8-1.1
			c0.1-0.9,0.1-1.8,0.4-2.6c0.5-1.8,1.5-3.3,2.8-4.6c2.5-2.5,5.6-4.2,8.9-5.5c0.4-0.2,0.9-0.3,1.3-0.5c0.2-2.7,0.2-5.3,0.5-7.9
			c0.4-4.1,1-8.1,1.5-12.2c0.1-0.6,0.3-1.3,0.5-1.9c0.8-1.9,2.7-3.1,4.8-2.9c1.4,0.1,2.5,0.7,3,2c0.4,0.9,0.7,1.9,0.8,2.9
			c0.2,1.2,0.2,2.4,0.2,3.6c-0.1,3.9-0.2,7.8-0.4,11.7C187.2,181.7,187.2,182.3,187.2,182.9z M187,186c-0.1,2.3-0.1,4.5-0.2,6.6
			c-0.1,6.1,0.2,12.1,1.2,18.1c0.4,2.2,0.9,4.4,1.8,6.4c0.3,0.6,0.6,1.2,1.1,1.6c0.6,0.7,1.3,0.6,2.1,0.1c0.7-0.5,1.2-1.2,1.5-2
			c1-3.2,2.1-6.4,3-9.7c0.8-3.2,1.4-6.4,2.2-9.6c0.2-0.8,0.3-1.6,0.2-2.5c-0.3-3.5-0.4-7-0.3-10.5c0-0.3,0-0.6-0.1-0.9
			C195.4,184.4,191.3,185.2,187,186z M251.1,189.9c-2.8,0-4.8,1.6-5.6,4.1c-0.5,1.6-0.6,3.2-0.6,4.9c0.1,2.5,0.7,5,1.2,7.4
			c0.7,3.1,1.7,6,3.1,8.8c0.4,0.8,0.9,1.6,1.5,2.2c0.9,1,1.8,1,2.9,0.1c0.3-0.3,0.6-0.6,0.8-1c0.4-0.8,0.9-1.6,1.2-2.4
			c0.7-2.2,1.2-4.5,1.8-6.8c0.3-1.3,0.5-2.7,0.5-4c0-2.9-0.2-5.8-0.3-8.6c0-0.5-0.2-0.9-0.5-1.3c-1-1.1-2.2-2-3.6-2.7
			C252.8,190.2,251.8,189.9,251.1,189.9z M268.1,186.5c0.1,0,0.2,0,0.3,0c0.2-0.2,0.5-0.5,0.7-0.7c4-4.5,6.7-9.8,8.4-15.5
			c0.7-2.2,1.1-4.5,1-6.8c-0.1-2.1-0.6-4-1.9-5.7c-0.6-0.7-1.2-0.8-2-0.6c-0.8,0.2-1.4,0.8-1.8,1.5c-0.5,1.1-1.1,2.2-1.5,3.3
			c-1.2,3.6-1.8,7.4-2.2,11.1c-0.4,4.1-0.7,8.1-1,12.2C268.1,185.7,268.1,186.1,268.1,186.5z M295.4,195.2c-1-9.5-0.9-19.1-1-28.8
			c-2.6,3.7-8.3,23.1-8,26.6C289.4,193.8,292.3,194.5,295.4,195.2z M210.4,176.6c0.3-0.1,0.5-0.2,0.6-0.3c4.1-2.6,7.5-5.9,9.8-10.2
			c0.9-1.7,1.5-3.5,1.7-5.4c0.2-1.7,0.2-3.4-0.4-5c-0.8-1.9-2.4-2.3-3.9-1c-0.7,0.6-1.3,1.3-1.7,2c-0.8,1.3-1.5,2.7-2.2,4.2
			c-1.7,3.7-2.5,7.7-3.3,11.7C210.9,173.8,210.7,175.1,210.4,176.6z M331.6,246.3c1.8-1.5,3.1-3.1,4.3-5c1.5-2.5,2.1-5.3,1.7-8.2
			c-0.1-1.1-0.4-2.1-1-3.1c-1.1-1.7-3.5-2.1-5-0.8c-1.2,1-2,2.3-2.4,3.7c-0.9,2.5-0.9,5-0.4,7.6C329.1,242.6,330,244.5,331.6,246.3z
			"/>
		<path d="M155.6,197.5c1.4,2.2,2.9,4.3,4.2,6.5c3.8,6.4,8.4,12.2,13.3,17.8c3.6,4.1,7.2,8.1,11.2,11.7c0.2,0.1,0.3,0.3,0.5,0.5
			c0.4,0.4,0.8,0.5,1.4,0.3c2.3-0.9,4.7-1.4,7.1-1.8c4-0.6,8.1-0.7,12,0.5c2.4,0.8,4.6,1.9,6.5,3.6c2.3,2,3.8,4.5,4.1,7.6
			c0.4,3.3-0.9,5.9-3.6,7.9c-2.1,1.5-4.5,2.1-7.1,2.2c-3.4,0.1-6.7-0.6-9.8-1.8c-5.4-2.1-10.1-5.2-14.4-9c-0.7-0.7-1.5-1.3-2.2-2
			c0,0-0.1,0-0.2-0.1c-0.3,0.2-0.7,0.3-1.1,0.6c-4.5,2.8-9,5.6-13.5,8.3c-4.9,3-9.9,5.9-15.1,8.1c-3.6,1.5-7.3,2.8-11.2,3.3
			c-3.7,0.5-7-0.2-10-2.5c-3.6-2.8-5.6-8.8-3-13.4c0.4-0.7,0.9-1.4,1.4-2.1c0.5-0.6,1.1-0.9,1.9-0.9c1.1,0,1.6,0.8,1.1,1.8
			c-0.1,0.3-0.3,0.5-0.5,0.7c-1.5,1.9-1.9,4.1-1.2,6.4c1,3.6,3.2,6,6.9,7c1.8,0.5,3.7,0.2,5.5-0.2c3.5-0.8,6.8-2.1,10-3.7
			c4.2-2.1,8.2-4.5,12.1-7c4.7-3,9.4-5.9,14.2-8.9c-8.6-8.8-16.3-18.5-24.1-28.2c0.1,0.5,0.1,1.1,0.3,1.6c0.6,3.1,1.3,6.1,1.9,9.2
			c0.1,0.3,0.1,0.6,0.2,0.9c0.3,1.6-0.3,2.7-1.7,3.4c-1.3,0.6-2.5,0.4-3.3-0.8c-0.8-1.2-1.6-2.4-2.2-3.6c-0.9-1.8-1.7-3.7-2.5-5.6
			c-0.1-0.3-0.3-0.6-0.5-0.9c-0.2,0.9-0.3,1.9-0.5,2.8c-0.6,2.7-1.3,5.3-2,8c-0.5,1.7-1.3,3.2-2.5,4.6c-2.3,2.7-5.5,3.4-8.7,1.9
			c-2.1-1-3.8-2.5-5.2-4.2c-2.3-2.7-3.9-5.8-4.9-9.2c-1.8-5.7-2.7-11.5-2.5-17.5c0-1.7,0.1-3.4,0.3-5.1c0.3-3.4,2.8-4.3,5-4.3
			c1.5,0,2.5,0.8,3.3,2.1c0.8,1.4,1.1,2.9,1.2,4.4c0.2,2.3,0.3,4.6,0.4,6.9c0.4,5.1,1.1,10.1,2.6,14.9c0.6,2,1.4,4,2.6,5.8
			c0.6,0.8,1.2,1.5,2,2.1c1.1,0.8,2,0.6,2.6-0.6c0.5-1.1,1.1-2.3,1.4-3.5c0.8-3.3,1.5-6.7,2.2-10c0.3-1.5,0.5-2.9,0.8-4.4
			c0.1-0.7,0.1-1.4-0.1-2c-1.8-5.5-3-11.1-3.9-16.8c-0.7-4.2-1.2-8.4-1.8-12.6c-0.1-0.9-0.1-1.8,0-2.6c0.3-2.4,2-4,4.4-4.1
			c1.6-0.1,2.8,0.5,3.6,1.9c0.5,1,1,2.1,1.2,3.3c0.7,3.4,1.2,6.9,1.8,10.3c0.1,0.7,0.2,1.3,0.5,2c0.2-1.3,0.3-2.6,0.6-4
			c0.8-4.7,1.9-9.3,4-13.6c1.7-3.5,3.9-6.6,7.1-8.9c1.6-1.1,3.3-2.1,5.2-2.4c3.1-0.5,6,0.9,7.4,3.8c1,2.1,1.2,4.3,1,6.6
			c-0.2,2.6-0.9,5-2,7.4c-3.4,7.5-8.3,13.9-14.3,19.4c-0.2,0.2-0.4,0.4-0.6,0.6C155.6,197.4,155.6,197.5,155.6,197.5z M188.3,236.8
			c0,0.1-0.1,0.2-0.1,0.3c0.2,0.1,0.4,0.3,0.6,0.4c1.3,1,2.5,2,3.8,3c3.9,2.9,7.9,5.4,12.5,7c0.9,0.3,1.8,0.6,2.7,0.7
			c2.9,0.3,3.5-0.7,3.9-2.9c0.1-0.3,0-0.7-0.1-1.1c-0.3-1.4-0.9-2.7-1.9-3.8c-2-2.4-4.5-3.9-7.5-4.6
			C197.5,234.7,192.9,235.5,188.3,236.8z M151,196.7c0.5-0.5,0.8-0.8,1.2-1.1c0.6-0.6,1.1-1.3,1.6-1.9c3-3.7,5.5-7.7,7.1-12.3
			c1.2-3.4,1.5-6.8,1.2-10.4c-0.1-0.9-0.3-1.7-0.9-2.4c-0.6-0.7-1.2-0.9-2-0.4c-0.8,0.6-1.7,1.2-2.3,2c-1.1,1.3-1.9,2.8-2.5,4.3
			c-1.4,3.6-2.2,7.3-2.9,11.1C150.9,189.1,150.7,192.7,151,196.7z"/>
		<path d="M70.3,187.5c0.7-2.7,1.2-5.3,2-7.8c1.5-5.2,3.9-10,7.1-14.4c1.6-2.2,3.4-4.1,5.8-5.4c2.3-1.4,4.8-1.8,7.4-1.3
			c3.5,0.7,5.9,2.8,7.3,6c0.8,1.7,1.2,3.6,1.3,5.5c0.4,6.6-1.3,12.6-4.5,18.2c-2.8,5-6.6,9.1-11.1,12.7c-0.4,0.3-0.7,0.6-1,1
			c0.4-0.1,0.9-0.2,1.3-0.3c5.4-1.4,10.7-1.4,16,0.3c3.4,1.1,6.4,2.7,8.7,5.4c4.4,5.2,5.8,11.2,3.4,17.7c-2.5,6.7-7.1,11.1-14,13.1
			c-4.8,1.4-9.3,0.8-13.5-2c-2.5-1.6-4.5-3.7-6.4-5.9c-0.2-0.2-0.4-0.5-0.6-0.7c0,0-0.1-0.1-0.3-0.1c0.1,0.3,0.1,0.6,0.2,0.9
			c0.9,3.3,1.9,6.6,3.4,9.7c1.4,2.8-1.6,5.7-4.1,5.5c-1-0.1-1.7-0.7-2-1.6c-0.9-2.4-2-4.8-2.7-7.3c-3.6-11.1-6.3-22.4-8.2-33.9
			c-0.9-5.2-1.8-10.4-2.5-15.7c-0.4-3.2-0.7-6.4-0.9-9.6c-0.1-1,0-2,0.2-2.9c0.3-2.2,2.7-3.5,4.7-2.7c1.1,0.4,1.6,1.2,1.8,2.3
			c0.2,1,0.3,2,0.4,3c0.3,2.9,0.6,5.9,0.9,8.8C70.1,186.6,70.2,187,70.3,187.5z M74.9,209.9c0.3,1.4,0.5,2.7,0.9,3.9
			c1.2,4.4,3.1,8.5,6,12c2.1,2.5,4.7,4.4,7.9,5.2c3.3,0.9,6.2,0.2,8.6-2.3c1.6-1.7,2.6-3.8,3.1-6.1c0.7-3.5,0.2-6.8-1.2-10.1
			c-1.9-4.5-5.4-6.9-10.3-6.9c-4.1,0-8.1,1-11.9,2.6C77,208.8,76,209.4,74.9,209.9z M73.7,203.7c0.9-0.6,1.7-1.1,2.4-1.6
			c2.3-1.7,4.2-3.8,6-6c3-3.8,5.1-8,6.3-12.7c0.5-2.1,0.7-4.2,0.3-6.4c-0.3-1.6-0.7-3.1-1.8-4.4c-1.5-1.8-3.4-2-5.2-0.5
			c-0.9,0.8-1.8,1.9-2.5,2.9c-1.2,1.8-2,3.7-2.6,5.8c-2.2,7-3.3,14.2-3,21.5C73.6,202.6,73.7,203,73.7,203.7z"/>
		<path d="M120.8,178.8c1.7,0,3,1,3.9,2.6c0.9,1.8,0.6,3.4-0.7,4.9c-2.5,2.9-6.9,2.2-8.5-1.3c-0.9-1.9-0.3-3.9,1.4-5.1
			C118,179.2,119.3,178.9,120.8,178.8z"/>
	</g>
	<g>
		<path class="st60" d="M168.7,269.9c4.5,0.1,9.1,0.2,13.6,0.4c7.8,0.4,15.6,1.1,23.3,2.3c9.5,1.4,18.9,2.8,28.4,4.1
			c5.1,0.7,10.1,1.3,15.2,1.8c4.3,0.4,8.6,0.2,12.9-0.1c6.3-0.4,12.6-1.4,18.8-2.9c5-1.2,9.9-2.9,14.8-4.7c2.2-0.9,4.5-1.6,6.8-2.4
			c0.9-0.3,1.8-0.4,2.7-0.4c1.8,0,2.9,1.1,2.8,2.9c0,0.9-0.1,1.8-0.5,2.6c-0.9,2.1-1.7,4.2-2.8,6.2c-2,3.8-4.4,7.3-6.8,10.8
			c-0.7,1-1.4,2-2,3.1c-0.5,0.9-0.8,1.9-1,2.9c-0.3,1.4,0.3,2.5,1.6,3.2c1.1,0.6,2.4,0.9,3.7,1c2.4,0.2,4.8,0.3,7.2,0.4
			c3,0.1,5.9,0,8.9,0.1c1.6,0.1,3.2,0.4,4.8,0.6c0.5,0.1,1,0.3,1.4,0.5c1.6,0.8,2.5,2.3,2.2,4.1c-0.2,1-0.5,2-0.9,2.9
			c-0.8,1.7-2.1,3.2-3.4,4.5c-2.5,2.5-5.3,4.7-8.3,6.6c-7.4,4.6-15.2,8.1-23.3,10.9c-7.6,2.7-15.4,4.5-23.3,5.7
			c-4.8,0.7-9.7,1.2-14.6,1.5c-6.8,0.4-13.6,0.7-20.4,0.5c-4.5-0.1-9-0.4-13.4-1c-10.3-1.2-20.5-3.1-30.7-4.8
			c-6.9-1.1-13.9-2.2-20.9-3.2c-5.7-0.8-11.5-1.3-17.3-1.6c-4.6-0.3-9.3-0.4-13.9-0.3c-3.9,0.1-7.8,0.4-11.7,0.6
			c-0.8,0-1.6,0-2.4-0.2c-1.6-0.4-2.4-1.4-2.3-3.1c0.1-0.9,0.2-1.9,0.6-2.8c0.9-2.1,1.9-4.2,3-6.2c2-3.5,4.3-6.8,6.4-10.2
			c0.8-1.3,1.6-2.7,2.3-4.1c1-2.1,0.7-3.3-0.9-4.9c-1.2-1.2-2.6-2.1-4.2-2.7c-2.8-1.1-5.6-2.2-8.5-3.3c-1.7-0.7-3.5-1.2-5.2-2
			c-1-0.4-2-1-2.9-1.7c-1.3-1-1.4-2.1-0.4-3.4c0.5-0.6,1.1-1.1,1.7-1.5c2.6-1.8,5.4-3.3,8.4-4.5c4.8-2,9.6-3.8,14.7-5
			c5.7-1.4,11.4-2.4,17.3-2.8C156.2,270.1,162.5,269.9,168.7,269.9z M218.1,298.7c0.1,0,0.1,0,0.2,0.1c-0.1,1-0.1,2-0.2,3.1
			c-0.2,3.3-0.6,6.6-1.4,9.7c-0.5,1.9-1.1,3.8-1.8,5.6c-0.4,1.1-1.1,2-2,2.7c-1.7,1.2-3.2,0.9-4.2-0.9c-0.4-0.7-0.8-1.3-1.2-1.9
			c-0.5-0.7-1.2-0.8-1.9-0.5c-0.8,0.4-1,0.9-0.9,1.8c0.1,0.3,0.2,0.6,0.3,0.9c1.1,3.1,3,4.5,6.3,4.3c3.1-0.2,5.7-1.5,7.8-3.8
			c2.4-2.7,4.1-5.8,5-9.3c1.3-5.7,1.7-11.4,1.5-17.2c0-0.8-0.2-1.5-0.5-2.2c-0.5-1.4-1.8-2.2-3.5-2.2c-1.7,0-2.6,0.8-3.3,2.2
			c-1.1,2.7-2.3,5.3-3.5,7.9c-0.5,1.1-1.1,2.2-1.7,3.2c-0.4,0.7-1,1.3-1.6,1.8c-0.9,0.8-1.9,0.6-2.5-0.4c-0.4-0.6-0.7-1.4-0.8-2.1
			c-0.2-2.1-0.3-4.3-0.3-6.4c0-1.7,0.1-3.4,0.1-5.1c0-1.4-0.9-2.3-2.3-2.5c-2.4-0.4-4.3,0.9-4.7,3.4c-0.4,2.6-0.5,5.2,0,7.7
			c0.4,2.5,1.5,4.7,3.3,6.5c2.6,2.7,7.3,3.4,10.3-0.5c1-1.3,1.7-2.8,2.6-4.2C217.6,299.9,217.8,299.3,218.1,298.7z M248.8,304.3
			c0-3.1-0.2-5.5-1.1-7.8c-0.9-2.6-2.6-4.6-5.2-5.8c-2.8-1.3-6.1-0.7-8.3,1.4c-2,1.9-3.3,4.2-4.1,6.8c-1.2,4.2-1.7,8.4-1.5,12.8
			c0.1,2.9,1,5.7,2.6,8.2c0.8,1.3,1.7,2.3,3,3.2c3.1,2.1,6.9,1.6,9.4-1.2c1-1.1,1.7-2.4,2.3-3.7
			C247.9,313.5,248.5,308.6,248.8,304.3z M188.5,300c0-2.7-0.2-5.5-1.1-8.1c-2.3-7.4-11.9-9.4-16.9-3.7c-1.2,1.3-2,2.8-2.5,4.4
			c-0.9,2.8-1.2,5.6-1.1,8.5c0.2,4.7,1.9,8.7,4.8,12.3c1.3,1.5,2.9,2.7,4.7,3.4c2.9,1.1,5.5,0.5,7.8-1.7c1.5-1.4,2.3-3.2,2.9-5.1
			C188,306.9,188.5,303.5,188.5,300z M252.1,300.7C252.1,300.7,252.1,300.7,252.1,300.7c0,1.9,0,3.9,0,5.8c0.1,2.3,0.3,4.5,0.9,6.7
			c0.7,2.7,1.9,5.2,4,7.2c3.2,3,8,2.6,10.7-0.9c1-1.3,1.7-2.8,2.2-4.4c0.9-2.9,1.3-5.9,1.7-8.9c0.6-5,0.5-10.1,0.1-15.1
			c0-0.5-0.2-0.9-0.3-1.4c-0.4-0.9-1-1.3-1.8-1.2c-0.9,0.1-1.6,0.5-1.8,1.4c-0.2,0.7-0.2,1.4-0.1,2.2c0.1,1.8,0.4,3.6,0.5,5.4
			c0.2,3.9,0,7.8-0.6,11.7c-0.4,2.3-0.8,4.7-1.7,6.9c-0.3,0.8-0.8,1.5-1.3,2.2c-0.4,0.6-0.8,0.7-1.4,0.2c-0.6-0.5-1.2-1.1-1.5-1.8
			c-0.5-1.1-1-2.3-1.3-3.5c-0.6-2.5-0.9-5.1-0.9-7.7c-0.1-3.5-0.1-7.1-0.2-10.6c0-0.7-0.1-1.4-0.2-2.1c-0.2-1-0.8-1.6-1.8-1.9
			c-2.2-0.7-4.5,0.6-4.9,2.8c-0.1,0.5-0.1,0.9-0.1,1.4C252.1,296.9,252.1,298.8,252.1,300.7z M159.7,288c0.5,0,1,0,1.5-0.1
			c0.7-0.1,1.4-0.3,2-0.5c0.5-0.2,0.9-0.6,0.8-1.2c0-0.6-0.5-1-1.1-1.1c-0.7-0.2-1.4-0.3-2.2-0.2c-2.7,0.1-5.3,0.2-8,0.3
			c-1.3,0.1-2.7,0.1-4,0.3c-0.5,0.1-1.1,0.3-1.6,0.7c-0.6,0.4-0.5,1,0.1,1.4c0.2,0.2,0.5,0.3,0.8,0.3c0.8,0.1,1.6,0.2,2.4,0.2
			c0.7,0,1.4,0,2.3,0c0,1.1,0,2,0,3c0.2,3.3,0.4,6.6,0.5,9.8c0.2,3.8,0.3,7.5,0.5,11.3c0,0.8,0.1,1.5,0.2,2.3c0.2,1.3,1,2.1,2.3,2.3
			c1.5,0.2,2.9-0.3,4-1.4c0.6-0.6,0.8-1.4,0.8-2.3c-0.2-3.5-0.3-7.1-0.5-10.6c-0.2-3.8-0.4-7.6-0.6-11.5
			C159.8,290.1,159.7,289.1,159.7,288z"/>
		<path class="st60" d="M235.9,309.6c0-4.3,0.6-8.5,1.8-12.6c0.3-1,0.7-1.9,1.3-2.8c0.5-0.8,0.8-0.7,1.5-0.2c1.5,1,2.5,2.3,3,3.9
			c0.5,1.5,0.9,3.1,1.1,4.7c0.4,4.4-0.1,8.7-1.3,13c-0.4,1.3-0.9,2.6-1.7,3.8c-0.3,0.4-0.6,0.8-0.9,1.1c-0.6,0.5-1,0.6-1.7,0.1
			c-0.8-0.6-1.2-1.3-1.6-2.2c-0.9-1.9-1.3-3.9-1.5-6C235.8,311.4,235.9,310.5,235.9,309.6z"/>
		<path class="st60" d="M184.7,300.2c0,3.2-0.4,6.1-1.2,9c-0.4,1.5-1,2.9-2,4.1c-0.9,1-1.5,1.1-2.6,0.3c-1.1-0.7-1.9-1.8-2.5-3
			c-1.8-3.5-2.7-7.2-2.4-11.2c0.2-2.4,0.5-4.9,1.2-7.2c0.2-0.6,0.4-1.2,0.6-1.7c0.8-2,3.5-2.4,4.9-1.3c1.2,0.9,2,2,2.6,3.3
			C184.4,295,184.7,297.6,184.7,300.2z"/>
	</g>
	<g>
		<path class="st52" d="M166.4,104.7c0.9,2.3,1.8,4.5,2.7,6.8c0.9,2.2,1.8,4.5,2.8,6.8c0.8,2,1.7,4,2.6,5.8c0.9,1.9,2,3.8,3.1,5.6
			c0.3,0.4,0.5,0.8,0.7,1.2c0.2,0.4,0.5,0.8,0.7,1.2c0.2,0.3,0.2,0.6,0.2,0.8c-0.1,0.2-0.3,0.3-0.7,0.5c-0.6,0.2-1.2,0.4-1.8,0.7
			c-0.6,0.2-1.2,0.5-1.8,0.7c-0.6,0.2-1.1,0.1-1.5-0.4c-0.4-0.5-0.8-1.1-1.1-1.6c-0.4-0.5-0.7-1.1-1.1-1.6c-0.2-0.3-0.4-0.6-0.6-0.9
			c-0.2-0.3-0.3-0.6-0.6-0.9l-5.4,2.7c0.2,0.3,0.3,0.6,0.4,0.9c0.1,0.3,0.3,0.6,0.5,0.8c0.3,0.5,0.6,0.9,0.9,1.4
			c0.3,0.5,0.6,0.9,0.9,1.4c0.2,0.3,0.3,0.6,0.3,0.8c0,0.2-0.2,0.3-0.5,0.5c-0.9,0.5-1.7,1-2.6,1.5c-0.8,0.5-1.7,1-2.6,1.5
			c-0.1,0.1-0.3,0.2-0.5,0.2c-0.5,0.2-0.9,0.2-1.2,0.1c-0.3-0.1-0.5-0.4-0.7-1c-0.2-0.5-0.6-1.4-1.2-2.8c-0.6-1.4-1.3-3.1-2.1-4.9
			c-0.8-1.9-1.7-3.9-2.6-6c-0.9-2.1-1.7-4.1-2.5-5.9c-0.8-1.8-1.5-3.4-2-4.7c-0.6-1.3-0.9-2.1-1-2.4c-0.2-0.4-0.2-0.7-0.2-0.8
			c0-0.2,0.2-0.4,0.6-0.7c0.4-0.4,0.9-0.8,1.4-1.1c0.5-0.3,1-0.7,1.5-1c0.7-0.4,1.1-0.6,1.3-0.5c0.2,0.1,0.5,0.5,0.8,1.2
			c0.7,1.7,1.5,3.3,2.3,4.9c0.8,1.6,1.5,3.3,2.3,4.9c0.6,1.1,1.1,2.2,1.7,3.3c0.6,1.1,1.2,2.2,1.8,3.4c1-0.4,1.9-0.8,2.7-1.2
			c0.8-0.4,1.7-1,2.5-1.6l-0.7-1.3c-0.8-1.8-1.7-3.5-2.5-5.2c-0.8-1.7-1.6-3.4-2.4-5.2c-0.3-0.8-0.7-1.6-1-2.3
			c-0.3-0.8-0.6-1.6-0.9-2.4c-0.2-0.5-0.2-0.8-0.2-1c0.1-0.2,0.4-0.4,0.8-0.6c0.8-0.3,1.7-0.7,2.4-1c0.8-0.4,1.6-0.7,2.4-1
			c0.4-0.1,0.7-0.2,0.9-0.1C166,104,166.2,104.3,166.4,104.7z"/>
		<path class="st52" d="M207.9,124.1c0.2,0.4,0.3,0.7,0.3,0.8c0,0.2-0.3,0.3-0.7,0.5c-1.1,0.4-2.2,0.8-3.4,1.2
			c-1.1,0.3-2.3,0.5-3.5,0.6c-0.4,0-0.7,0-1.1,0.1c-0.4,0-0.7,0.1-1.1,0.1c-0.4,0-0.6,0-0.8-0.2c-0.1-0.1-0.2-0.4-0.3-0.7
			c-0.1-0.6-0.2-1.3-0.3-2.1c-0.1-0.8-0.2-1.7-0.4-2.5c-0.1-0.8-0.2-1.5-0.3-2.2c-0.1-0.6-0.2-1-0.2-1.1l-5.5,1.2
			c0,0.2,0.2,0.6,0.4,1.2c0.2,0.6,0.4,1.3,0.7,2c0.3,0.7,0.5,1.5,0.8,2.3c0.3,0.8,0.5,1.4,0.7,1.8c0,0.1,0,0.1,0.1,0.2
			c0,0.1,0.1,0.1,0.1,0.2c0.1,0.4,0.1,0.7,0.1,0.8c-0.1,0.1-0.3,0.2-0.7,0.3c-0.5,0.1-1,0.2-1.6,0.3c-0.5,0.1-1,0.2-1.6,0.3
			c-0.9,0.2-1.9,0.3-2.8,0.5c-0.9,0.2-1.8,0.3-2.8,0.5c-0.6,0.1-1,0.1-1.2,0c-0.1-0.1-0.2-0.5-0.2-1.1c0-0.9,0.1-2.1,0.1-3.7
			c0.1-1.6,0.1-3.3,0.2-5.1c0.1-1.9,0.1-3.8,0.2-5.8c0.1-2,0.1-3.9,0.2-5.7c0.1-1.8,0.1-3.4,0.1-4.7c0-1.4,0-2.4,0.1-3
			c0-0.6,0.2-1,0.4-1.4c0.2-0.3,0.6-0.6,1-0.8c0.9-0.4,1.8-0.9,2.8-1.3c0.9-0.4,1.8-0.9,2.7-1.3c0.3-0.1,0.5-0.2,0.8-0.4
			c0.3-0.1,0.5-0.2,0.8-0.4c0.5-0.2,0.9-0.1,1.2,0.3c0,0.1,0.3,0.6,0.8,1.6c0.5,1,1.2,2.2,2,3.8c0.8,1.6,1.8,3.3,2.8,5.3
			c1,2,2.1,4,3.2,6.1c1.1,2.1,2.1,4.1,3.1,6c1,2,1.9,3.7,2.7,5.2C207.8,123.9,207.9,124,207.9,124.1z M190.1,114.1
			c0.6-0.2,1.2-0.3,1.8-0.5c0.6-0.2,1.2-0.3,1.9-0.5c-0.5-1.2-1.1-2.4-1.7-3.6c-0.6-1.1-1.3-2.2-2.1-3.3c-0.1,1.4-0.2,2.7-0.2,4
			C189.8,111.5,189.9,112.8,190.1,114.1z"/>
		<path class="st52" d="M226.6,93.7c0.8,0.3,1.5,0.7,2.1,1.3c0.6,0.5,1.2,1.2,1.6,1.9c0.5,0.7,0.8,1.5,1,2.3
			c0.2,0.8,0.3,1.7,0.3,2.5c0,0.7-0.1,1.4-0.2,2.1c-0.1,0.7-0.3,1.4-0.5,2c-0.3,1-0.7,1.9-1.3,2.7c-0.6,0.8-1.3,1.5-2.1,2.1
			c-0.8,0.6-1.7,1-2.6,1.3c-1,0.3-2,0.4-3,0.4l-0.5,0c0,0.3,0.1,0.8,0.2,1.5c0.1,0.6,0.2,1.4,0.3,2.1c0.1,0.8,0.2,1.6,0.4,2.5
			c0.1,0.9,0.2,1.7,0.4,2.5c0.1,0.8,0.2,1.5,0.3,2.1c0.1,0.6,0.2,1.1,0.3,1.4c0.1,0.5,0.2,0.9,0,1.1c-0.1,0.2-0.5,0.3-1.1,0.3
			c-1.4,0-2.8,0-4.2,0c-1.4,0-2.8,0-4.2-0.1c-0.4,0-0.7-0.1-0.9-0.3c-0.2-0.2-0.2-0.5-0.2-1c0.1-0.7,0.2-1.4,0.2-2
			c0.1-0.7,0.2-1.4,0.2-2c0.1-1.9,0.3-3.9,0.4-6c0.1-2.1,0.2-4.1,0.3-6c0.1-1.7,0.2-3.4,0.2-5c0-1.6,0.1-3.3,0.2-5
			c0-0.6,0-1.3,0-1.9c0-0.6,0-1.3-0.1-1.9c0-0.5,0.1-0.9,0.2-1.1c0.1-0.2,0.5-0.4,1-0.5c0.1,0,0.4-0.1,1-0.1c0.6,0,1.3,0,2.1-0.1
			c0.8,0,1.6,0,2.4,0c0.8,0,1.5,0,2.1,0.1c0.6,0,1.2,0.1,1.8,0.3C225.4,93.3,226,93.5,226.6,93.7z M224.8,103.4
			c0.3-0.6,0.4-1.1,0.4-1.7c0-0.6-0.2-1.1-0.6-1.7c-0.4-0.5-0.8-0.8-1.3-0.9c-0.5-0.1-1.1-0.1-1.6-0.1c-0.5,0.1-0.9,0.1-1,0.3
			c-0.1,0.1-0.2,0.5-0.3,1c0,0.9-0.1,1.8-0.1,2.7c0,0.9,0,1.8,0,2.7c1,0,1.9-0.1,2.7-0.5C223.8,104.8,224.4,104.2,224.8,103.4z"/>
		<path class="st52" d="M252.4,97.2c0.7,0.4,1.3,1,1.9,1.6c0.5,0.6,1,1.4,1.3,2.1c0.3,0.8,0.5,1.6,0.6,2.4c0.1,0.8,0,1.7-0.2,2.5
			c-0.2,0.7-0.4,1.4-0.6,2c-0.2,0.7-0.5,1.3-0.8,1.9c-0.4,0.9-1,1.7-1.7,2.4c-0.7,0.7-1.5,1.2-2.4,1.7c-0.9,0.4-1.8,0.7-2.8,0.8
			c-1,0.1-2,0.1-3-0.2l-0.5-0.1c0,0.3-0.1,0.8-0.1,1.5c0,0.6-0.1,1.4-0.1,2.2c0,0.8-0.1,1.6-0.1,2.5c0,0.9-0.1,1.7-0.1,2.5
			c0,0.8,0,1.5-0.1,2.1c0,0.6,0,1.1,0,1.4c0,0.6,0,0.9-0.2,1.1c-0.2,0.2-0.5,0.2-1.1,0.1c-1.4-0.2-2.8-0.5-4.1-0.7
			c-1.4-0.3-2.7-0.5-4.1-0.8c-0.4-0.1-0.7-0.2-0.8-0.4c-0.1-0.2-0.1-0.6,0-1c0.2-0.7,0.4-1.3,0.6-2c0.2-0.6,0.4-1.3,0.6-2
			c0.5-1.9,0.9-3.8,1.4-5.8c0.5-2,1-3.9,1.4-5.8c0.4-1.6,0.8-3.3,1.1-4.9c0.3-1.6,0.7-3.2,1-4.9c0.1-0.6,0.2-1.2,0.3-1.9
			c0.1-0.6,0.2-1.2,0.3-1.9c0.1-0.5,0.2-0.9,0.4-1c0.2-0.2,0.5-0.3,1-0.3c0.1,0,0.4,0,1,0.1c0.6,0.1,1.3,0.2,2.1,0.3
			c0.8,0.1,1.6,0.3,2.4,0.4c0.8,0.1,1.5,0.3,2,0.4c0.6,0.1,1.2,0.3,1.7,0.6C251.4,96.6,251.9,96.9,252.4,97.2z M248.9,106.5
			c0.4-0.5,0.6-1,0.7-1.6c0.1-0.6,0-1.1-0.3-1.7c-0.3-0.6-0.6-1-1.1-1.2c-0.5-0.2-1-0.3-1.6-0.3c-0.5,0-0.9,0-1,0.1
			c-0.1,0.1-0.3,0.4-0.4,0.9c-0.2,0.9-0.4,1.7-0.5,2.6c-0.2,0.9-0.3,1.8-0.5,2.7c1,0.2,1.9,0.2,2.7-0.1
			C247.7,107.6,248.4,107.1,248.9,106.5z"/>
		<path class="st52" d="M283.4,111.4c-0.1,0.1-0.3,0.3-0.8,0.7c-0.5,0.4-1.1,0.8-1.8,1.4c-0.7,0.5-1.5,1.1-2.4,1.8
			c-0.9,0.7-1.8,1.3-2.7,2c-0.9,0.6-1.8,1.2-2.7,1.8c-0.9,0.6-1.7,1-2.3,1.4c-0.7,0.4-1.1,0.9-1.3,1.6c-0.2,0.6-0.4,1.3-0.6,2.2
			c-0.2,0.8-0.4,1.7-0.6,2.6c-0.2,0.9-0.4,1.8-0.6,2.7c-0.2,0.9-0.4,1.7-0.5,2.4c-0.2,0.7-0.3,1.3-0.4,1.8c-0.1,0.5-0.1,0.7-0.1,0.7
			c-0.1,0.4-0.2,0.7-0.4,0.8c-0.2,0.1-0.4,0.1-0.8,0c-1-0.4-2-0.7-2.9-1.1c-1-0.4-1.9-0.8-2.9-1.2c-0.5-0.2-0.7-0.6-0.4-1.1
			c0.1-0.2,0.4-0.8,0.9-1.8c0.5-1,1-2.1,1.6-3.3c0.6-1.2,1.2-2.5,1.8-3.7c0.6-1.2,1.1-2.2,1.5-2.9c0.2-0.3,0.2-0.6,0.2-0.8
			c0-0.3-0.1-0.5-0.2-0.8c-0.2-0.5-0.5-1.1-0.9-1.9c-0.4-0.7-0.8-1.5-1.2-2.4c-0.4-0.8-0.8-1.7-1.2-2.5c-0.4-0.9-0.8-1.6-1.2-2.4
			c-0.4-0.7-0.7-1.4-0.9-1.9c-0.2-0.5-0.4-0.9-0.5-1.1c-0.2-0.4-0.2-0.7-0.2-0.9c0.1-0.2,0.3-0.4,0.7-0.6c0.9-0.6,1.9-1.1,2.8-1.7
			c0.9-0.6,1.9-1.1,2.8-1.7c0.4-0.3,0.8-0.4,0.9-0.3c0.2,0.1,0.3,0.4,0.5,0.9c0,0.2,0.2,0.6,0.4,1.3c0.2,0.6,0.4,1.3,0.7,2.2
			c0.3,0.8,0.5,1.7,0.8,2.6c0.3,0.9,0.5,1.7,0.8,2.5c0.2,0.8,0.4,1.4,0.6,1.9c0.2,0.5,0.3,0.8,0.3,0.8c0.1-0.1,0.3-0.3,0.7-0.7
			c0.4-0.4,0.9-0.9,1.4-1.5c0.5-0.6,1.1-1.2,1.7-1.9c0.6-0.7,1.2-1.3,1.7-1.8c0.5-0.6,1-1,1.3-1.4c0.4-0.4,0.6-0.6,0.6-0.6
			c0.3-0.3,0.5-0.5,0.7-0.5c0.2,0,0.5,0.1,0.8,0.4c0.1,0.1,0.3,0.3,0.7,0.7c0.4,0.4,0.8,0.8,1.3,1.2c0.5,0.5,0.9,0.9,1.4,1.4
			c0.5,0.5,0.8,0.8,1.1,1c0.4,0.4,0.6,0.6,0.6,0.9C283.9,110.6,283.8,111,283.4,111.4z"/>
	</g>
</g>
</svg>
